# Blender v2.79 (sub 0) OBJ File: ''
# www.blender.org
v 0.000000 -0.030000 -0.900000
v 0.000000 -0.030000 -1.100000
v 0.015000 -0.026000 -1.100000
v 0.015000 -0.026000 -0.900000
v 0.026000 -0.015000 -1.100000
v 0.026000 -0.015000 -0.900000
v 0.030000 0.000000 -1.100000
v 0.030000 0.000000 -0.900000
v 0.026000 0.015000 -1.100000
v 0.026000 0.015000 -0.900000
v 0.015000 0.026000 -1.100000
v 0.015000 0.026000 -0.900000
v 0.000000 0.030000 -1.100000
v 0.000000 0.030000 -0.900000
v -0.015000 0.026000 -1.100000
v -0.015000 0.026000 -0.900000
v -0.026000 0.015000 -1.100000
v -0.026000 0.015000 -0.900000
v -0.030000 0.000000 -1.100000
v -0.030000 0.000000 -0.900000
v -0.026000 -0.015000 -1.100000
v -0.026000 -0.015000 -0.900000
v -0.015000 -0.026000 -1.100000
v -0.015000 -0.026000 -0.900000
v 0.000000 0.000000 -0.838003
v 0.000000 0.000000 -1.038003
v 0.010000 0.120000 -1.000000
v 0.010000 0.000000 -0.878821
v 0.010000 0.000000 -1.038821
v 0.010000 0.120000 -1.160000
v 0.010000 -0.120000 -1.000000
v 0.010000 -0.120000 -1.160000
v -0.010000 0.120000 -1.160000
v -0.010000 0.000000 -1.038821
v -0.010000 0.000000 -0.878821
v -0.010000 0.120000 -1.000000
v -0.010000 -0.120000 -1.160000
v -0.010000 -0.120000 -1.000000
v 0.000000 -0.021766 1.000000
v 0.000000 -0.021766 -0.000000
v 0.010000 -0.018828 -0.000000
v 0.010000 -0.018828 1.000000
v 0.000000 -0.021766 -1.000000
v 0.010000 -0.018828 -1.000000
v 0.017300 -0.010883 -0.000000
v 0.017300 -0.010883 1.000000
v 0.017300 -0.010883 -1.000000
v 0.020000 0.000000 0.000000
v 0.020000 -0.000000 1.000000
v 0.020000 0.000000 -1.000000
v 0.017300 0.010883 0.000000
v 0.017300 0.010883 1.000000
v 0.017300 0.010883 -1.000000
v 0.010000 0.018828 0.000000
v 0.010000 0.018828 1.000000
v 0.010000 0.018828 -1.000000
v 0.000000 0.021766 0.000000
v 0.000000 0.021766 1.000000
v 0.000000 0.021766 -1.000000
v -0.010000 0.018828 0.000000
v -0.010000 0.018828 1.000000
v -0.010000 0.018828 -1.000000
v -0.017300 0.010883 0.000000
v -0.017300 0.010883 1.000000
v -0.017300 0.010883 -1.000000
v -0.020000 0.000000 0.000000
v -0.020000 -0.000000 1.000000
v -0.020000 0.000000 -1.000000
v -0.017300 -0.010883 -0.000000
v -0.017300 -0.010883 1.000000
v -0.017300 -0.010883 -1.000000
v -0.010000 -0.018828 -0.000000
v -0.010000 -0.018828 1.000000
v -0.010000 -0.018828 -1.000000
v 0.000000 -0.000000 1.250000
v 0.000000 -0.060000 0.950000
v 0.023000 -0.055400 0.950000
v 0.042400 -0.042400 0.950000
v 0.055400 -0.023000 0.950000
v 0.060000 -0.000000 0.950000
v 0.055400 0.023000 0.950000
v 0.042400 0.042400 0.950000
v 0.023000 0.055400 0.950000
v 0.000000 0.060000 0.950000
v -0.023000 0.055400 0.950000
v -0.042400 0.042400 0.950000
v -0.055400 0.023000 0.950000
v -0.060000 -0.000000 0.950000
v -0.055400 -0.023000 0.950000
v -0.042400 -0.042400 0.950000
v -0.023000 -0.055400 0.950000
v 0.000000 -0.000000 0.950000
vt 0.000000 0.000000
vt 0.083333 1.000000
vt 0.000000 1.000000
vt 0.083333 0.000000
vt 0.166667 1.000000
vt 0.166667 0.000000
vt 0.250000 1.000000
vt 0.250000 0.000000
vt 0.333333 1.000000
vt 0.333333 0.000000
vt 0.416667 1.000000
vt 0.416667 0.000000
vt 0.500000 1.000000
vt 0.500000 0.000000
vt 0.583333 1.000000
vt 0.583333 0.000000
vt 0.666667 1.000000
vt 0.666667 0.000000
vt 0.750000 1.000000
vt 0.750000 0.000000
vt 0.833333 1.000000
vt 0.833333 0.000000
vt 0.916667 1.000000
vt 0.916667 0.000000
vt 1.000000 1.000000
vt 0.000000 0.000000
vt 0.000000 1.000000
vt 1.000000 0.000000
vt 0.000000 1.000000
vt 1.000000 0.500000
vt 1.000000 1.000000
vt 0.000000 0.000000
vt 0.000000 0.500000
vt 0.000000 0.500000
vt 1.000000 1.000000
vt 0.000000 1.000000
vt 1.000000 0.000000
vt 1.000000 0.500000
vt 0.000000 0.000000
vt 0.000000 0.000000
vt 1.000000 1.000000
vt 0.000000 1.000000
vt 0.000000 0.500000
vt 1.000000 1.000000
vt 0.000000 1.000000
vt 0.000000 0.000000
vt 1.000000 0.500000
vt 0.000000 0.500000
vt 1.000000 1.000000
vt 0.000000 1.000000
vt 0.000000 0.000000
vt 1.000000 0.500000
vt 0.000000 0.500000
vt 0.083333 1.000000
vt 0.000000 1.000000
vt 0.000000 0.000000
vt 0.083333 0.500000
vt 0.166667 1.000000
vt 0.083333 0.000000
vt 0.166667 0.500000
vt 0.250000 1.000000
vt 0.166667 0.000000
vt 0.250000 0.500000
vt 0.333333 1.000000
vt 0.250000 0.000000
vt 0.333333 0.500000
vt 0.416667 1.000000
vt 0.333333 0.000000
vt 0.416667 0.500000
vt 0.500000 1.000000
vt 0.416667 0.000000
vt 0.500000 0.500000
vt 0.583333 1.000000
vt 0.500000 0.000000
vt 0.583333 0.500000
vt 0.666667 1.000000
vt 0.583333 0.000000
vt 0.666667 0.500000
vt 0.750000 1.000000
vt 0.666667 0.000000
vt 0.750000 0.500000
vt 0.833333 1.000000
vt 0.750000 0.000000
vt 0.833333 0.500000
vt 0.916667 1.000000
vt 0.833333 0.000000
vt 0.916667 0.500000
vt 1.000000 1.000000
vt 0.916667 0.000000
vt 1.000000 0.500000
vt 0.000000 1.000000
vt 0.000000 0.000000
vt 0.062500 0.000000
vt 0.062500 1.000000
vt 0.125000 0.000000
vt 0.125000 1.000000
vt 0.187500 0.000000
vt 0.187500 1.000000
vt 0.250000 0.000000
vt 0.250000 1.000000
vt 0.312500 0.000000
vt 0.312500 1.000000
vt 0.375000 0.000000
vt 0.375000 1.000000
vt 0.437500 0.000000
vt 0.437500 1.000000
vt 0.500000 0.000000
vt 0.500000 1.000000
vt 0.562500 0.000000
vt 0.562500 1.000000
vt 0.625000 0.000000
vt 0.625000 1.000000
vt 0.687500 0.000000
vt 0.687500 1.000000
vt 0.750000 0.000000
vt 0.750000 1.000000
vt 0.812500 0.000000
vt 0.812500 1.000000
vt 0.875000 0.000000
vt 0.875000 1.000000
vt 0.937500 0.000000
vt 0.937500 1.000000
vt 1.000000 0.000000
vt 0.000000 1.000000
vt 1.000000 0.000000
vt 1.000000 0.000000
vt 1.000000 0.000000
vt 1.000000 0.000000
vt 1.000000 0.000000
vn 0.0000 -1.0000 -0.0000
vn 0.2577 -0.9662 -0.0000
vn 0.7071 -0.7071 -0.0000
vn 0.9662 -0.2577 -0.0000
vn 1.0000 -0.0000 0.0000
vn 0.9662 0.2577 0.0000
vn 0.7071 0.7071 0.0000
vn 0.2577 0.9662 0.0000
vn -0.0000 1.0000 0.0000
vn -0.2577 0.9662 0.0000
vn -0.7071 0.7071 0.0000
vn -0.9662 0.2577 0.0000
vn -1.0000 0.0000 0.0000
vn -0.9662 -0.2577 -0.0000
vn -0.7071 -0.7071 -0.0000
vn -0.2577 -0.9662 -0.0000
vn 0.0000 -0.0000 1.0000
vn 0.0000 0.0000 -1.0000
vn 0.2819 -0.9594 -0.0000
vn 0.4541 -0.8910 -0.0000
vn 0.5278 -0.8480 -0.0492
vn 0.8407 -0.5415 -0.0000
vn 0.8799 -0.4729 -0.0455
vn 0.9706 -0.2408 -0.0000
vn 0.9706 0.2408 0.0000
vn 0.9185 0.3953 0.0000
vn 0.8796 0.4727 -0.0540
vn 0.6061 0.7954 0.0000
vn 0.5275 0.8475 -0.0589
vn 0.2819 0.9594 0.0000
vn -0.2819 0.9594 0.0000
vn -0.4541 0.8910 0.0000
vn -0.5278 0.8480 -0.0492
vn -0.8407 0.5415 0.0000
vn -0.8799 0.4729 -0.0455
vn -0.9706 0.2408 0.0000
vn -0.9706 -0.2408 -0.0000
vn -0.9185 -0.3953 -0.0000
vn -0.8796 -0.4727 -0.0540
vn -0.6061 -0.7954 -0.0000
vn -0.5275 -0.8475 -0.0589
vn -0.2819 -0.9594 -0.0000
vn 0.0563 -0.2817 0.9578
vn 0.0000 -0.9806 0.1961
vn 0.3763 -0.9055 0.1961
vn 0.6934 -0.6934 0.1960
vn 0.9055 -0.3763 0.1961
vn 0.9806 0.0000 0.1961
vn 0.9055 0.3763 0.1961
vn 0.6934 0.6934 0.1960
vn 0.3763 0.9055 0.1961
vn 0.0000 0.9806 0.1961
vn -0.3763 0.9055 0.1961
vn -0.6934 0.6934 0.1960
vn -0.9055 0.3763 0.1961
vn -0.9806 0.0000 0.1961
vn -0.9055 -0.3763 0.1961
vn -0.6934 -0.6934 0.1960
vn -0.3763 -0.9055 0.1961
s 1
f 2/1/1 4/2/2 1/3/1
f 3/4/3 6/5/3 4/2/3
f 5/6/4 8/7/5 6/5/4
f 7/8/5 10/9/6 8/7/5
f 9/10/7 12/11/7 10/9/7
f 11/12/8 14/13/9 12/11/8
f 13/14/9 16/15/10 14/13/9
f 15/16/11 18/17/11 16/15/11
f 17/18/12 20/19/13 18/17/12
f 19/20/13 22/21/14 20/19/13
f 21/22/15 24/23/15 22/21/15
f 23/24/16 1/25/1 24/23/16
f 1/3/17 4/2/17 25/26/17
f 4/2/17 6/5/17 25/26/17
f 6/5/17 8/7/17 25/26/17
f 8/7/17 10/9/17 25/26/17
f 10/9/17 12/11/17 25/26/17
f 12/11/17 14/13/17 25/26/17
f 14/13/17 16/15/17 25/26/17
f 16/15/17 18/17/17 25/26/17
f 18/17/17 20/19/17 25/26/17
f 20/19/17 22/21/17 25/26/17
f 22/21/17 24/23/17 25/26/17
f 24/23/17 1/25/17 25/26/17
f 3/4/18 2/1/18 26/27/18
f 5/6/18 3/4/18 26/27/18
f 7/8/18 5/6/18 26/27/18
f 9/10/18 7/8/18 26/27/18
f 11/12/18 9/10/18 26/27/18
f 13/14/18 11/12/18 26/27/18
f 15/16/18 13/14/18 26/27/18
f 17/18/18 15/16/18 26/27/18
f 19/20/18 17/18/18 26/27/18
f 21/22/18 19/20/18 26/27/18
f 23/24/18 21/22/18 26/27/18
f 2/28/18 23/24/18 26/27/18
f 27/29/5 29/30/5 30/31/5
f 31/32/5 29/30/5 28/33/5
f 34/34/13 36/35/13 33/36/13
f 34/34/13 38/37/13 35/38/13
f 36/39/9 30/31/9 33/36/9
f 37/40/1 31/41/1 38/42/1
f 35/43/17 27/44/17 36/45/17
f 38/46/17 28/47/17 35/43/17
f 29/48/18 33/49/18 30/50/18
f 32/51/18 34/52/18 29/48/18
f 40/53/19 42/54/20 39/55/19
f 43/56/19 41/57/21 40/53/19
f 41/57/21 46/58/22 42/54/20
f 44/59/20 45/60/23 41/57/21
f 45/60/23 49/61/24 46/58/22
f 47/62/22 48/63/24 45/60/23
f 48/63/25 52/64/26 49/61/25
f 50/65/25 51/66/27 48/63/25
f 51/66/27 55/67/28 52/64/26
f 53/68/26 54/69/29 51/66/27
f 54/69/29 58/70/30 55/67/28
f 56/71/28 57/72/30 54/69/29
f 57/72/31 61/73/32 58/70/31
f 59/74/31 60/75/33 57/72/31
f 60/75/33 64/76/34 61/73/32
f 62/77/32 63/78/35 60/75/33
f 63/78/35 67/79/36 64/76/34
f 65/80/34 66/81/36 63/78/35
f 66/81/37 70/82/38 67/79/37
f 68/83/37 69/84/39 66/81/37
f 69/84/39 73/85/40 70/82/38
f 71/86/38 72/87/41 69/84/39
f 72/87/41 39/88/42 73/85/40
f 74/89/40 40/90/42 72/87/41
f 75/91/43 76/92/44 77/93/45
f 75/94/43 77/93/45 78/95/46
f 75/96/43 78/95/46 79/97/47
f 75/98/43 79/97/47 80/99/48
f 75/100/43 80/99/48 81/101/49
f 75/102/43 81/101/49 82/103/50
f 75/104/43 82/103/50 83/105/51
f 75/106/43 83/105/51 84/107/52
f 75/108/43 84/107/52 85/109/53
f 75/110/43 85/109/53 86/111/54
f 75/112/43 86/111/54 87/113/55
f 75/114/43 87/113/55 88/115/56
f 75/116/43 88/115/56 89/117/57
f 75/118/43 89/117/57 90/119/58
f 75/120/43 90/119/58 91/121/59
f 75/122/43 91/121/59 76/123/44
f 77/93/18 76/92/18 92/124/18
f 78/95/18 77/93/18 92/124/18
f 79/97/18 78/95/18 92/124/18
f 80/99/18 79/97/18 92/124/18
f 81/101/18 80/99/18 92/124/18
f 82/103/18 81/101/18 92/124/18
f 83/105/18 82/103/18 92/124/18
f 84/107/18 83/105/18 92/124/18
f 85/109/18 84/107/18 92/124/18
f 86/111/18 85/109/18 92/124/18
f 87/113/18 86/111/18 92/124/18
f 88/115/18 87/113/18 92/124/18
f 89/117/18 88/115/18 92/124/18
f 90/119/18 89/117/18 92/124/18
f 91/121/18 90/119/18 92/124/18
f 76/123/18 91/121/18 92/124/18
f 2/1/1 3/4/2 4/2/2
f 3/4/3 5/6/3 6/5/3
f 5/6/4 7/8/5 8/7/5
f 7/8/5 9/10/6 10/9/6
f 9/10/7 11/12/7 12/11/7
f 11/12/8 13/14/9 14/13/9
f 13/14/9 15/16/10 16/15/10
f 15/16/11 17/18/11 18/17/11
f 17/18/12 19/20/13 20/19/13
f 19/20/13 21/22/14 22/21/14
f 21/22/15 23/24/15 24/23/15
f 23/24/16 2/28/1 1/25/1
f 27/29/5 28/33/5 29/30/5
f 31/32/5 32/125/5 29/30/5
f 34/34/13 35/38/13 36/35/13
f 34/34/13 37/40/13 38/37/13
f 36/39/9 27/126/9 30/31/9
f 37/40/1 32/125/1 31/41/1
f 35/43/17 28/47/17 27/44/17
f 38/46/17 31/127/17 28/47/17
f 29/48/18 34/52/18 33/49/18
f 32/51/18 37/128/18 34/52/18
f 40/53/19 41/57/21 42/54/20
f 43/56/19 44/59/20 41/57/21
f 41/57/21 45/60/23 46/58/22
f 44/59/20 47/62/22 45/60/23
f 45/60/23 48/63/24 49/61/24
f 47/62/22 50/65/24 48/63/24
f 48/63/25 51/66/27 52/64/26
f 50/65/25 53/68/26 51/66/27
f 51/66/27 54/69/29 55/67/28
f 53/68/26 56/71/28 54/69/29
f 54/69/29 57/72/30 58/70/30
f 56/71/28 59/74/30 57/72/30
f 57/72/31 60/75/33 61/73/32
f 59/74/31 62/77/32 60/75/33
f 60/75/33 63/78/35 64/76/34
f 62/77/32 65/80/34 63/78/35
f 63/78/35 66/81/36 67/79/36
f 65/80/34 68/83/36 66/81/36
f 66/81/37 69/84/39 70/82/38
f 68/83/37 71/86/38 69/84/39
f 69/84/39 72/87/41 73/85/40
f 71/86/38 74/89/40 72/87/41
f 72/87/41 40/90/42 39/88/42
f 74/89/40 43/129/42 40/90/42
